<svg width="50" height="50" viewBox="0 0 50 50" fill="none" xmlns="http://www.w3.org/2000/svg">
<path d="M39.5833 6.25004H30.875C30 3.83337 27.7083 2.08337 25 2.08337C22.2917 2.08337 20 3.83337 19.125 6.25004H10.4167C8.125 6.25004 6.25 8.12504 6.25 10.4167V39.5834C6.25 41.875 8.125 43.75 10.4167 43.75H39.5833C41.875 43.75 43.75 41.875 43.75 39.5834V10.4167C43.75 8.12504 41.875 6.25004 39.5833 6.25004ZM25 6.25004C26.1458 6.25004 27.0833 7.18754 27.0833 8.33337C27.0833 9.47921 26.1458 10.4167 25 10.4167C23.8542 10.4167 22.9167 9.47921 22.9167 8.33337C22.9167 7.18754 23.8542 6.25004 25 6.25004ZM25 37.5L14.5833 27.0834H20.8333V18.75H29.1667V27.0834H35.4167L25 37.5Z" fill="white"/>
</svg>
