<svg width="40" height="40" viewBox="0 0 40 40" fill="none" xmlns="http://www.w3.org/2000/svg">
<path d="M8.33333 11.6667C9.21739 11.6667 10.0652 11.3155 10.6904 10.6904C11.3155 10.0652 11.6667 9.21739 11.6667 8.33333C11.6667 7.44928 11.3155 6.60143 10.6904 5.97631C10.0652 5.35119 9.21739 5 8.33333 5C7.44928 5 6.60143 5.35119 5.97631 5.97631C5.35119 6.60143 5 7.44928 5 8.33333C5 9.21739 5.35119 10.0652 5.97631 10.6904C6.60143 11.3155 7.44928 11.6667 8.33333 11.6667ZM20 11.6667C20.8841 11.6667 21.7319 11.3155 22.357 10.6904C22.9821 10.0652 23.3333 9.21739 23.3333 8.33333C23.3333 7.44928 22.9821 6.60143 22.357 5.97631C21.7319 5.35119 20.8841 5 20 5C19.1159 5 18.2681 5.35119 17.643 5.97631C17.0179 6.60143 16.6667 7.44928 16.6667 8.33333C16.6667 9.21739 17.0179 10.0652 17.643 10.6904C18.2681 11.3155 19.1159 11.6667 20 11.6667ZM31.6667 11.6667C32.5507 11.6667 33.3986 11.3155 34.0237 10.6904C34.6488 10.0652 35 9.21739 35 8.33333C35 7.44928 34.6488 6.60143 34.0237 5.97631C33.3986 5.35119 32.5507 5 31.6667 5C30.7826 5 29.9348 5.35119 29.3096 5.97631C28.6845 6.60143 28.3333 7.44928 28.3333 8.33333C28.3333 9.21739 28.6845 10.0652 29.3096 10.6904C29.9348 11.3155 30.7826 11.6667 31.6667 11.6667ZM8.33333 23.3333C9.21739 23.3333 10.0652 22.9821 10.6904 22.357C11.3155 21.7319 11.6667 20.8841 11.6667 20C11.6667 19.1159 11.3155 18.2681 10.6904 17.643C10.0652 17.0179 9.21739 16.6667 8.33333 16.6667C7.44928 16.6667 6.60143 17.0179 5.97631 17.643C5.35119 18.2681 5 19.1159 5 20C5 20.8841 5.35119 21.7319 5.97631 22.357C6.60143 22.9821 7.44928 23.3333 8.33333 23.3333ZM20 23.3333C20.8841 23.3333 21.7319 22.9821 22.357 22.357C22.9821 21.7319 23.3333 20.8841 23.3333 20C23.3333 19.1159 22.9821 18.2681 22.357 17.643C21.7319 17.0179 20.8841 16.6667 20 16.6667C19.1159 16.6667 18.2681 17.0179 17.643 17.643C17.0179 18.2681 16.6667 19.1159 16.6667 20C16.6667 20.8841 17.0179 21.7319 17.643 22.357C18.2681 22.9821 19.1159 23.3333 20 23.3333ZM31.6667 23.3333C32.5507 23.3333 33.3986 22.9821 34.0237 22.357C34.6488 21.7319 35 20.8841 35 20C35 19.1159 34.6488 18.2681 34.0237 17.643C33.3986 17.0179 32.5507 16.6667 31.6667 16.6667C30.7826 16.6667 29.9348 17.0179 29.3096 17.643C28.6845 18.2681 28.3333 19.1159 28.3333 20C28.3333 20.8841 28.6845 21.7319 29.3096 22.357C29.9348 22.9821 30.7826 23.3333 31.6667 23.3333ZM8.33333 35C9.21739 35 10.0652 34.6488 10.6904 34.0237C11.3155 33.3986 11.6667 32.5507 11.6667 31.6667C11.6667 30.7826 11.3155 29.9348 10.6904 29.3096C10.0652 28.6845 9.21739 28.3333 8.33333 28.3333C7.44928 28.3333 6.60143 28.6845 5.97631 29.3096C5.35119 29.9348 5 30.7826 5 31.6667C5 32.5507 5.35119 33.3986 5.97631 34.0237C6.60143 34.6488 7.44928 35 8.33333 35ZM20 35C20.8841 35 21.7319 34.6488 22.357 34.0237C22.9821 33.3986 23.3333 32.5507 23.3333 31.6667C23.3333 30.7826 22.9821 29.9348 22.357 29.3096C21.7319 28.6845 20.8841 28.3333 20 28.3333C19.1159 28.3333 18.2681 28.6845 17.643 29.3096C17.0179 29.9348 16.6667 30.7826 16.6667 31.6667C16.6667 32.5507 17.0179 33.3986 17.643 34.0237C18.2681 34.6488 19.1159 35 20 35ZM31.6667 35C32.5507 35 33.3986 34.6488 34.0237 34.0237C34.6488 33.3986 35 32.5507 35 31.6667C35 30.7826 34.6488 29.9348 34.0237 29.3096C33.3986 28.6845 32.5507 28.3333 31.6667 28.3333C30.7826 28.3333 29.9348 28.6845 29.3096 29.3096C28.6845 29.9348 28.3333 30.7826 28.3333 31.6667C28.3333 32.5507 28.6845 33.3986 29.3096 34.0237C29.9348 34.6488 30.7826 35 31.6667 35Z" fill="white" fill-opacity="0.7"/>
</svg>
