<svg width="50" height="50" viewBox="0 0 50 50" fill="none" xmlns="http://www.w3.org/2000/svg">
<path d="M6.25 22.9167H22.9167V6.25H6.25V22.9167ZM10.4167 10.4167H18.75V18.75H10.4167V10.4167Z" fill="white"/>
<path d="M6.25 43.75H22.9167V27.0834H6.25V43.75ZM10.4167 31.25H18.75V39.5834H10.4167V31.25Z" fill="white"/>
<path d="M27.0833 6.25V22.9167H43.75V6.25H27.0833ZM39.5833 18.75H31.25V10.4167H39.5833V18.75Z" fill="white"/>
<path d="M43.75 39.5834H39.5833V43.75H43.75V39.5834Z" fill="white"/>
<path d="M31.25 27.0834H27.0833V31.25H31.25V27.0834Z" fill="white"/>
<path d="M35.4167 31.25H31.25V35.4167H35.4167V31.25Z" fill="white"/>
<path d="M31.25 35.4166H27.0833V39.5833H31.25V35.4166Z" fill="white"/>
<path d="M35.4167 39.5834H31.25V43.75H35.4167V39.5834Z" fill="white"/>
<path d="M39.5834 35.4166H35.4167V39.5833H39.5834V35.4166Z" fill="white"/>
<path d="M39.5834 27.0834H35.4167V31.25H39.5834V27.0834Z" fill="white"/>
<path d="M43.75 31.25H39.5833V35.4167H43.75V31.25Z" fill="white"/>
</svg>
