<svg width="50" height="50" viewBox="0 0 50 50" fill="none" xmlns="http://www.w3.org/2000/svg">
<path d="M22.9166 18.75H27.0833V12.5H33.3333V8.33337H27.0833V2.08337H22.9166V8.33337H16.6666V12.5H22.9166V18.75ZM14.5833 37.5C12.2916 37.5 10.4375 39.375 10.4375 41.6667C10.4375 43.9584 12.2916 45.8334 14.5833 45.8334C16.875 45.8334 18.75 43.9584 18.75 41.6667C18.75 39.375 16.875 37.5 14.5833 37.5ZM35.4166 37.5C33.125 37.5 31.2708 39.375 31.2708 41.6667C31.2708 43.9584 33.125 45.8334 35.4166 45.8334C37.7083 45.8334 39.5833 43.9584 39.5833 41.6667C39.5833 39.375 37.7083 37.5 35.4166 37.5ZM14.9375 30.7292L15 30.4792L16.875 27.0834H32.3958C33.9583 27.0834 35.3333 26.2292 36.0416 24.9375L44.0833 10.3334L40.4583 8.33337H40.4375L38.1458 12.5L32.3958 22.9167H17.7708L17.5 22.3542L12.8333 12.5L10.8541 8.33337L8.89581 4.16671H2.08331V8.33337H6.24998L13.75 24.1459L10.9375 29.25C10.6041 29.8334 10.4166 30.5209 10.4166 31.25C10.4166 33.5417 12.2916 35.4167 14.5833 35.4167H39.5833V31.25H15.4583C15.1875 31.25 14.9375 31.0209 14.9375 30.7292Z" fill="white"/>
</svg>
