<svg width="44" height="278" viewBox="0 0 44 278" fill="none" xmlns="http://www.w3.org/2000/svg">
<line x1="42" y1="2" x2="42" y2="276" stroke="white" stroke-opacity="0.3" stroke-width="4" stroke-linecap="round"/>
<line x1="42" x2="42" y2="102" stroke="white" stroke-opacity="0.7" stroke-width="4"/>
<path d="M13.224 15.384C13.224 16.888 13.06 18.192 12.732 19.296C12.412 20.4 11.968 21.316 11.4 22.044C10.84 22.764 10.176 23.3 9.408 23.652C8.648 24.004 7.828 24.18 6.948 24.18C6.068 24.18 5.244 24.004 4.476 23.652C3.716 23.3 3.056 22.764 2.496 22.044C1.936 21.316 1.496 20.4 1.176 19.296C0.856 18.192 0.696 16.888 0.696 15.384C0.696 13.88 0.856 12.576 1.176 11.472C1.496 10.36 1.936 9.444 2.496 8.724C3.056 7.996 3.716 7.456 4.476 7.104C5.244 6.752 6.068 6.576 6.948 6.576C7.828 6.576 8.648 6.752 9.408 7.104C10.176 7.456 10.84 7.996 11.4 8.724C11.968 9.444 12.412 10.36 12.732 11.472C13.06 12.576 13.224 13.88 13.224 15.384ZM10.8 15.384C10.8 14.088 10.692 13.004 10.476 12.132C10.268 11.26 9.984 10.56 9.624 10.032C9.272 9.496 8.864 9.116 8.4 8.892C7.936 8.668 7.452 8.556 6.948 8.556C6.444 8.556 5.96 8.668 5.496 8.892C5.032 9.116 4.62 9.496 4.26 10.032C3.908 10.56 3.628 11.26 3.42 12.132C3.212 13.004 3.108 14.088 3.108 15.384C3.108 16.68 3.212 17.764 3.42 18.636C3.628 19.508 3.908 20.208 4.26 20.736C4.62 21.264 5.032 21.64 5.496 21.864C5.96 22.088 6.444 22.2 6.948 22.2C7.452 22.2 7.936 22.088 8.4 21.864C8.864 21.64 9.272 21.264 9.624 20.736C9.984 20.208 10.268 19.508 10.476 18.636C10.692 17.764 10.8 16.68 10.8 15.384ZM26.1859 22.212V24H16.8739V22.212H20.5219V10.92C20.5219 10.56 20.5339 10.188 20.5579 9.804L17.6299 12.288C17.5179 12.376 17.4059 12.432 17.2939 12.456C17.1819 12.48 17.0739 12.484 16.9699 12.468C16.8739 12.452 16.7859 12.42 16.7059 12.372C16.6339 12.316 16.5739 12.26 16.5259 12.204L15.7939 11.184L20.9539 6.732H22.8619V22.212H26.1859Z" fill="white"/>
</svg>
