<svg width="252" height="137" viewBox="0 0 252 137" fill="none" xmlns="http://www.w3.org/2000/svg">
<path fill-rule="evenodd" clip-rule="evenodd" d="M79.145 87.774C80.6051 88.356 81.9829 89.1379 83.1881 90.1442C90.6493 96.2574 90.0828 106.627 84.3267 113.594C81.2411 117.097 77.3721 119.874 73.0367 121.676C66.8858 124.116 60.4888 125.91 53.9238 127.034L53.2095 127.145L52.7527 126.541C48.7337 121.225 45.2962 115.512 42.4778 109.47C40.5909 105.189 39.6817 100.533 39.8284 95.8588C40.3989 86.8248 47.1207 78.9083 56.8528 79.5929C57.6139 79.6346 58.3687 79.7523 59.098 79.9409L59.3757 80.0516C60.0628 80.2182 60.7255 80.4326 61.3735 80.6909L61.628 80.7923C63.0687 81.4163 64.3813 82.2272 65.568 83.226L65.7045 83.2804C65.78 83.3602 65.8305 83.4353 65.8597 83.4966C66.3072 83.8607 66.7189 84.2341 67.0827 84.6669L67.809 85.4012C67.9775 85.5964 68.1486 85.8604 68.2965 86.0885C68.3903 86.2331 68.4747 86.3632 68.5431 86.4524C68.5722 86.4892 68.6019 86.5264 68.6318 86.5638C68.7852 86.7559 68.9449 86.956 69.0673 87.1558C72.402 86.2638 75.9375 86.4695 79.145 87.774ZM78.8217 106.482C79.7804 106.835 80.8863 106.415 81.3345 105.492L81.4416 105.224C82.7716 102.089 81.9489 98.4407 79.4024 96.1438C78.5805 95.4473 77.3404 95.5312 76.6154 96.341C75.9135 97.1601 76.0087 98.4015 76.8465 99.1252C78.1138 100.258 78.5388 102.078 77.9098 103.656L77.8819 103.726C77.6319 104.226 77.5927 104.788 77.7637 105.301C77.9347 105.814 78.3316 106.231 78.8217 106.482Z" fill="#88BA52"/>
<path d="M31.5 15.02C32.42 15.02 33.1 15.06 33.54 15.14C34.02 15.18 34.54 15.36 35.1 15.68C35.7 16 36.12 16.54 36.36 17.3C36.6 18.06 36.72 19.08 36.72 20.36C36.72 21.64 36.6 22.66 36.36 23.42C36.12 24.18 35.7 24.72 35.1 25.04C34.5 25.32 33.96 25.5 33.48 25.58C33.04 25.62 32.34 25.64 31.38 25.64H13.02V31.7H24.84C25.8 31.7 26.5 31.74 26.94 31.82C27.42 31.86 27.96 32.04 28.56 32.36C29.6 32.96 30.12 34.54 30.12 37.1C30.12 39.9 29.36 41.56 27.84 42.08C27.2 42.28 26.18 42.38 24.78 42.38H13.02V53.72C13.02 54.68 12.98 55.38 12.9 55.82C12.86 56.26 12.68 56.78 12.36 57.38C11.8 58.46 10.24 59 7.68 59C4.88 59 3.24 58.24 2.76 56.72C2.52 56.08 2.4 55.06 2.4 53.66V20.3C2.4 18.26 2.78 16.88 3.54 16.16C4.3 15.4 5.74 15.02 7.86 15.02H31.5ZM65.6925 39.44C65.6925 41.88 65.0725 43.7 63.8325 44.9C62.6325 46.06 61.2925 46.64 59.8125 46.64H45.5925C45.5925 47.76 46.2525 48.7 47.5725 49.46C48.8925 50.22 50.2125 50.6 51.5325 50.6C53.8525 50.6 55.6725 50.36 56.9925 49.88L57.6525 49.64C58.6125 49.2 59.4125 48.98 60.0525 48.98C61.3325 48.98 62.4325 49.88 63.3525 51.68C63.8725 52.76 64.1325 53.68 64.1325 54.44C64.1325 58 59.8725 59.78 51.3525 59.78C48.3925 59.78 45.7525 59.28 43.4325 58.28C41.1525 57.24 39.3725 55.88 38.0925 54.2C35.5725 50.96 34.3125 47.34 34.3125 43.34C34.3125 38.3 35.9325 34.28 39.1725 31.28C42.4525 28.24 46.5325 26.72 51.4125 26.72C56.9725 26.72 61.0525 28.68 63.6525 32.6C65.0125 34.68 65.6925 36.96 65.6925 39.44ZM53.0325 41.18C54.5525 41.18 55.3125 40.54 55.3125 39.26C55.3125 38.34 54.9525 37.6 54.2325 37.04C53.5525 36.48 52.5525 36.2 51.2325 36.2C49.9525 36.2 48.6725 36.74 47.3925 37.82C46.1125 38.86 45.4725 39.98 45.4725 41.18H53.0325ZM69.607 32.66C69.607 31.74 69.627 31.06 69.667 30.62C69.747 30.14 69.927 29.6 70.207 29C70.767 27.96 72.327 27.44 74.887 27.44C76.807 27.44 78.167 27.78 78.967 28.46C79.647 29.02 80.007 29.88 80.047 31.04C80.087 31.44 80.107 32.02 80.107 32.78V53.78C80.107 54.7 80.067 55.4 79.987 55.88C79.947 56.32 79.767 56.84 79.447 57.44C78.927 58.48 77.387 59 74.827 59C72.307 59 70.767 58.46 70.207 57.38C69.927 56.78 69.747 56.26 69.667 55.82C69.627 55.38 69.607 54.68 69.607 53.72V32.66ZM79.447 21.56C79.167 22.12 78.647 22.52 77.887 22.76C77.127 23 76.107 23.12 74.827 23.12C73.587 23.12 72.587 23 71.827 22.76C71.067 22.52 70.527 22.1 70.207 21.5C69.927 20.9 69.747 20.38 69.667 19.94C69.627 19.46 69.607 18.76 69.607 17.84C69.607 16.92 69.627 16.24 69.667 15.8C69.747 15.32 69.927 14.8 70.207 14.24C70.767 13.16 72.327 12.62 74.887 12.62C77.407 12.62 78.927 13.16 79.447 14.24C79.767 14.84 79.947 15.38 79.987 15.86C80.067 16.3 80.107 16.98 80.107 17.9C80.107 18.82 80.067 19.52 79.987 20C79.947 20.44 79.767 20.96 79.447 21.56ZM106.38 27.74C107.14 27.98 107.76 28.4 108.24 29C108.76 29.56 109.02 30.48 109.02 31.76C109.02 33.04 108.64 34.44 107.88 35.96C107.12 37.48 106.02 38.24 104.58 38.24C103.86 38.24 103.16 38.08 102.48 37.76C101.84 37.44 100.98 37.28 99.9 37.28C98.82 37.28 97.8 37.66 96.84 38.42C95.92 39.18 95.46 40.1 95.46 41.18V53.78C95.46 54.7 95.42 55.4 95.34 55.88C95.3 56.32 95.12 56.84 94.8 57.44C94.2 58.48 92.64 59 90.12 59C88.2 59 86.82 58.66 85.98 57.98C85.34 57.42 84.98 56.56 84.9 55.4C84.9 55 84.9 54.42 84.9 53.66V32.6C84.9 31.68 84.92 31 84.96 30.56C85.04 30.08 85.22 29.56 85.5 29C86.06 27.92 87.62 27.38 90.18 27.38C92.58 27.38 94.08 27.84 94.68 28.76C95.12 29.4 95.34 30.06 95.34 30.74C95.54 30.46 95.82 30.12 96.18 29.72C96.58 29.32 97.4 28.78 98.64 28.1C99.88 27.42 100.96 27.08 101.88 27.08C102.84 27.08 103.64 27.14 104.28 27.26C104.92 27.34 105.62 27.5 106.38 27.74ZM112.322 32.66C112.322 31.74 112.342 31.06 112.382 30.62C112.462 30.14 112.642 29.6 112.922 29C113.482 27.96 115.042 27.44 117.602 27.44C119.522 27.44 120.882 27.78 121.682 28.46C122.362 29.02 122.722 29.88 122.762 31.04C122.802 31.44 122.822 32.02 122.822 32.78V53.78C122.822 54.7 122.782 55.4 122.702 55.88C122.662 56.32 122.482 56.84 122.162 57.44C121.642 58.48 120.102 59 117.542 59C115.022 59 113.482 58.46 112.922 57.38C112.642 56.78 112.462 56.26 112.382 55.82C112.342 55.38 112.322 54.68 112.322 53.72V32.66ZM122.162 21.56C121.882 22.12 121.362 22.52 120.602 22.76C119.842 23 118.822 23.12 117.542 23.12C116.302 23.12 115.302 23 114.542 22.76C113.782 22.52 113.242 22.1 112.922 21.5C112.642 20.9 112.462 20.38 112.382 19.94C112.342 19.46 112.322 18.76 112.322 17.84C112.322 16.92 112.342 16.24 112.382 15.8C112.462 15.32 112.642 14.8 112.922 14.24C113.482 13.16 115.042 12.62 117.602 12.62C120.122 12.62 121.642 13.16 122.162 14.24C122.482 14.84 122.662 15.38 122.702 15.86C122.782 16.3 122.822 16.98 122.822 17.9C122.822 18.82 122.782 19.52 122.702 20C122.662 20.44 122.482 20.96 122.162 21.56ZM145.195 27.38C149.195 27.38 152.515 28.92 155.155 32C157.835 35.04 159.175 38.76 159.175 43.16V53.72C159.175 54.64 159.135 55.34 159.055 55.82C159.015 56.26 158.855 56.76 158.575 57.32C158.015 58.4 156.455 58.94 153.895 58.94C151.055 58.94 149.415 58.2 148.975 56.72C148.735 56.04 148.615 55.02 148.615 53.66V43.1C148.615 41.46 148.135 40.18 147.175 39.26C146.255 38.34 144.995 37.88 143.395 37.88C141.835 37.88 140.555 38.36 139.555 39.32C138.595 40.28 138.115 41.54 138.115 43.1V53.72C138.115 54.64 138.075 55.34 137.995 55.82C137.955 56.26 137.775 56.76 137.455 57.32C136.935 58.4 135.395 58.94 132.835 58.94C130.315 58.94 128.775 58.4 128.215 57.32C127.935 56.72 127.755 56.2 127.675 55.76C127.635 55.28 127.615 54.58 127.615 53.66V32.42C127.615 31.54 127.635 30.88 127.675 30.44C127.755 29.96 127.955 29.44 128.275 28.88C128.835 27.88 130.375 27.38 132.895 27.38C135.335 27.38 136.835 27.84 137.395 28.76C137.795 29.44 137.995 30.26 137.995 31.22C138.155 30.94 138.515 30.54 139.075 30.02C139.635 29.5 140.175 29.08 140.695 28.76C142.055 27.84 143.555 27.38 145.195 27.38ZM181.522 27.5C185.522 27.5 188.842 29.02 191.482 32.06C194.162 35.1 195.502 38.82 195.502 43.22V53.78C195.502 54.7 195.462 55.4 195.382 55.88C195.342 56.32 195.162 56.84 194.842 57.44C194.322 58.48 192.782 59 190.222 59C187.782 59 186.262 58.48 185.662 57.44C185.342 56.84 185.142 56.3 185.062 55.82C185.022 55.34 185.002 54.62 185.002 53.66V43.16C185.002 41.52 184.542 40.24 183.622 39.32C182.702 38.4 181.522 37.94 180.082 37.94C178.682 37.94 177.442 38.38 176.362 39.26C175.282 40.1 174.662 41.06 174.502 42.14V53.78C174.502 54.7 174.462 55.4 174.382 55.88C174.342 56.32 174.162 56.84 173.842 57.44C173.322 58.48 171.782 59 169.222 59C166.702 59 165.162 58.46 164.602 57.38C164.322 56.78 164.142 56.26 164.062 55.82C164.022 55.38 164.002 54.68 164.002 53.72V17.84C164.002 16.92 164.022 16.24 164.062 15.8C164.142 15.32 164.322 14.8 164.602 14.24C165.162 13.16 166.722 12.62 169.282 12.62C171.802 12.62 173.322 13.16 173.842 14.24C174.162 14.84 174.342 15.38 174.382 15.86C174.462 16.3 174.502 16.98 174.502 17.9V31.16C176.502 28.72 178.842 27.5 181.522 27.5ZM220.85 30.74C221.09 28.5 222.67 27.38 225.59 27.38C227.15 27.38 228.31 27.5 229.07 27.74C229.83 27.98 230.35 28.4 230.63 29C230.95 29.6 231.13 30.14 231.17 30.62C231.25 31.06 231.29 31.74 231.29 32.66V53.66C231.29 54.58 231.25 55.28 231.17 55.76C231.13 56.2 230.97 56.72 230.69 57.32C230.13 58.36 228.75 58.88 226.55 58.88C224.39 58.88 222.93 58.62 222.17 58.1C221.45 57.54 221.03 56.74 220.91 55.7C219.43 57.82 216.95 58.88 213.47 58.88C210.03 58.88 206.83 57.3 203.87 54.14C200.91 50.98 199.43 47.32 199.43 43.16C199.43 38.96 200.91 35.3 203.87 32.18C206.87 29.02 210.15 27.44 213.71 27.44C215.07 27.44 216.31 27.68 217.43 28.16C218.55 28.64 219.33 29.1 219.77 29.54C220.21 29.94 220.57 30.34 220.85 30.74ZM209.93 43.22C209.93 44.54 210.45 45.74 211.49 46.82C212.53 47.86 213.79 48.38 215.27 48.38C216.75 48.38 217.97 47.84 218.93 46.76C219.93 45.68 220.43 44.5 220.43 43.22C220.43 41.9 219.95 40.68 218.99 39.56C218.07 38.44 216.81 37.88 215.21 37.88C213.65 37.88 212.37 38.44 211.37 39.56C210.41 40.68 209.93 41.9 209.93 43.22Z" fill="#161616"/>
<path d="M154.76 91.64H168.84C171.72 91.7467 173.48 92.4933 174.12 93.88C174.653 94.8933 174.92 96.3867 174.92 98.36V115.96C174.92 117.667 174.173 119.293 172.68 120.84C168.2 125.48 161.48 127.8 152.52 127.8C144.573 127.8 137.667 124.813 131.8 118.84C125.933 112.813 123 105.56 123 97.08C123 88.6 125.987 81.5333 131.96 75.88C137.933 70.1733 144.973 67.32 153.08 67.32C159.373 67.32 165.32 69.4 170.92 73.56C172.36 74.6267 173.08 75.8267 173.08 77.16C173.08 78.44 172.467 79.9333 171.24 81.64C169.16 84.4667 167.267 85.88 165.56 85.88C164.547 85.88 162.92 85.16 160.68 83.72C158.44 82.2267 155.773 81.48 152.68 81.48C148.627 81.48 145.027 82.92 141.88 85.8C138.733 88.6267 137.16 92.36 137.16 97C137.16 101.587 138.76 105.507 141.96 108.76C145.16 111.96 148.787 113.56 152.84 113.56C155.773 113.56 158.413 113.08 160.76 112.12V103.4H154.44C152.787 103.4 151.613 103.187 150.92 102.76C150.227 102.333 149.773 101.72 149.56 100.92C149.347 100.067 149.24 98.9467 149.24 97.56C149.24 96.12 149.347 94.9733 149.56 94.12C149.827 93.2667 150.28 92.68 150.92 92.36C151.88 91.88 153.16 91.64 154.76 91.64ZM205.789 99L200.589 98.68V109.72C200.589 111.16 200.803 112.2 201.229 112.84C201.709 113.48 202.563 113.8 203.789 113.8C205.069 113.8 206.029 113.853 206.669 113.96C207.363 114.013 208.083 114.253 208.829 114.68C210.056 115.373 210.669 117.16 210.669 120.04C210.669 123.4 209.923 125.453 208.429 126.2C207.629 126.573 206.909 126.813 206.269 126.92C205.683 126.973 204.803 127 203.629 127C198.083 127 193.869 125.747 190.989 123.24C188.109 120.733 186.669 116.493 186.669 110.52V98.68C185.656 98.84 184.563 98.92 183.389 98.92C182.216 98.92 181.229 98.4667 180.429 97.56C179.683 96.6533 179.309 95.1067 179.309 92.92C179.309 90.7333 179.443 89.16 179.709 88.2C179.976 87.1867 180.349 86.4667 180.829 86.04C181.683 85.3467 182.749 85 184.029 85L186.669 85.32V77.08C186.669 75.8533 186.696 74.9467 186.749 74.36C186.856 73.7733 187.123 73.1333 187.549 72.44C188.243 71.1067 190.296 70.44 193.709 70.44C197.336 70.44 199.496 71.4267 200.189 73.4C200.456 74.2533 200.589 75.6133 200.589 77.48V85.32C202.936 85.1067 204.696 85 205.869 85C207.096 85 208.003 85.0533 208.589 85.16C209.229 85.2133 209.949 85.4533 210.749 85.88C212.136 86.5733 212.829 88.6267 212.829 92.04C212.829 95.4 212.109 97.4533 210.669 98.2C209.869 98.5733 209.149 98.8133 208.509 98.92C207.923 98.9733 207.016 99 205.789 99ZM217.247 91.88C217.247 90.6533 217.274 89.7467 217.327 89.16C217.434 88.52 217.674 87.8 218.047 87C218.794 85.6133 220.874 84.92 224.287 84.92C226.847 84.92 228.66 85.3733 229.727 86.28C230.634 87.0267 231.114 88.1733 231.167 89.72C231.22 90.2533 231.247 91.0267 231.247 92.04V120.04C231.247 121.267 231.194 122.2 231.087 122.84C231.034 123.427 230.794 124.12 230.367 124.92C229.674 126.307 227.62 127 224.207 127C220.847 127 218.794 126.28 218.047 124.84C217.674 124.04 217.434 123.347 217.327 122.76C217.274 122.173 217.247 121.24 217.247 119.96V91.88ZM230.367 77.08C229.994 77.8267 229.3 78.36 228.287 78.68C227.274 79 225.914 79.16 224.207 79.16C222.554 79.16 221.22 79 220.207 78.68C219.194 78.36 218.474 77.8 218.047 77C217.674 76.2 217.434 75.5067 217.327 74.92C217.274 74.28 217.247 73.3467 217.247 72.12C217.247 70.8933 217.274 69.9867 217.327 69.4C217.434 68.76 217.674 68.0667 218.047 67.32C218.794 65.88 220.874 65.16 224.287 65.16C227.647 65.16 229.674 65.88 230.367 67.32C230.794 68.12 231.034 68.84 231.087 69.48C231.194 70.0667 231.247 70.9733 231.247 72.2C231.247 73.4267 231.194 74.36 231.087 75C231.034 75.5867 230.794 76.28 230.367 77.08Z" fill="#161616"/>
</svg>
